<svg xmlns="http://www.w3.org/2000/svg" width="300" viewBox="0 0 300 187.5" height="187.5" version="1.0"><defs><clipPath id="a"><path d="M 198.761719 31.996094 L 214.480469 31.996094 L 214.480469 47.886719 L 198.761719 47.886719 Z M 198.761719 31.996094"/></clipPath><clipPath id="b"><path d="M 198.761719 55.347656 L 214.480469 55.347656 L 214.480469 71.238281 L 198.761719 71.238281 Z M 198.761719 55.347656"/></clipPath><clipPath id="c"><path d="M 198.761719 78.695312 L 214.480469 78.695312 L 214.480469 94.585938 L 198.761719 94.585938 Z M 198.761719 78.695312"/></clipPath><clipPath id="d"><path d="M 85.902344 18.699219 L 199 18.699219 L 199 168.300781 L 85.902344 168.300781 Z M 85.902344 18.699219"/></clipPath><clipPath id="e"><path d="M 85.902344 18.699219 L 94 18.699219 L 94 168.300781 L 85.902344 168.300781 Z M 85.902344 18.699219"/></clipPath><clipPath id="f"><path d="M 180.550781 18.699219 L 199 18.699219 L 199 168.300781 L 180.550781 168.300781 Z M 180.550781 18.699219"/></clipPath></defs><g clip-path="url(#a)"><path fill="#FC723F" d="M 198.800781 47.628906 L 214.476562 47.628906 L 214.476562 31.996094 L 198.800781 31.996094 Z M 198.800781 47.628906"/></g><g clip-path="url(#b)"><path fill="#E68845" d="M 198.800781 71.007812 L 214.476562 71.007812 L 214.476562 55.375 L 198.800781 55.375 Z M 198.800781 71.007812"/></g><g clip-path="url(#c)"><path fill="#FCAA3F" d="M 198.800781 94.390625 L 214.476562 94.390625 L 214.476562 78.757812 L 198.800781 78.757812 Z M 198.800781 94.390625"/></g><path fill="#D66136" d="M 198.800781 47.628906 L 206.640625 47.628906 L 206.640625 31.996094 L 198.800781 31.996094 Z M 198.800781 47.628906"/><path fill="#C4743B" d="M 198.800781 71.007812 L 206.640625 71.007812 L 206.640625 55.375 L 198.800781 55.375 Z M 198.800781 71.007812"/><path fill="#D69136" d="M 198.800781 94.390625 L 206.640625 94.390625 L 206.640625 78.757812 L 198.800781 78.757812 Z M 198.800781 94.390625"/><g clip-path="url(#d)"><path fill="#F2533D" d="M 192.457031 168.308594 L 85.902344 168.308594 L 85.902344 18.699219 L 192.457031 18.699219 C 195.960938 18.699219 198.800781 21.53125 198.800781 25.023438 L 198.800781 161.984375 C 198.800781 165.480469 195.960938 168.308594 192.457031 168.308594"/></g><g clip-path="url(#e)"><path fill="#F46D5A" d="M 85.902344 168.308594 L 93.742188 168.308594 L 93.742188 18.699219 L 85.902344 18.699219 Z M 85.902344 168.308594"/></g><path fill="#F7C874" d="M 127.539062 57.714844 C 125.929688 50.710938 123.179688 47.933594 119.964844 47.234375 C 119.542969 51.894531 119.585938 61.574219 124.492188 74.597656 C 128.382812 74.554688 130.75 71.394531 127.539062 57.714844"/><path fill="#F7C874" d="M 156.210938 109.773438 C 146.3125 99.695312 142.339844 100.070312 140.226562 103.378906 C 148.46875 114.449219 156.546875 119.808594 160.859375 122.125 C 162.21875 118.984375 161.457031 115.082031 156.210938 109.773438"/><path fill="#F2B63D" d="M 160.859375 122.125 C 158.960938 124.71875 154.773438 128.617188 152.066406 130.683594 C 146.652344 134.792969 140.140625 133.046875 135.53125 128.492188 C 119.371094 112.46875 106.136719 90.75 101.355469 68.382812 C 99.878906 61.484375 99.636719 53.046875 107.5625 49.707031 C 111.222656 48.167969 114.292969 47.375 119.964844 47.234375 C 119.964844 47.234375 118.921875 60.453125 124.578125 74.597656 C 123.488281 74.433594 119.882812 74.054688 118.746094 73.882812 C 117.71875 73.726562 116.878906 74.703125 117.195312 75.691406 C 121.03125 87.832031 127.226562 99.097656 135.472656 108.816406 C 136.140625 109.601562 137.40625 109.425781 137.832031 108.484375 C 138.285156 107.488281 139.800781 104.34375 140.226562 103.378906 C 140.226562 103.378906 148.878906 115.773438 160.859375 122.125"/><path fill="#CE4734" d="M 159.933594 123.285156 C 159.941406 123.277344 159.949219 123.269531 159.953125 123.261719 C 159.949219 123.269531 159.941406 123.277344 159.933594 123.285156 M 160.003906 123.207031 C 160.015625 123.191406 160.027344 123.175781 160.039062 123.160156 C 160.027344 123.175781 160.015625 123.191406 160.003906 123.207031 M 160.0625 123.132812 C 160.335938 122.804688 160.589844 122.492188 160.808594 122.191406 C 160.589844 122.492188 160.335938 122.804688 160.0625 123.132812 M 136.542969 109.3125 C 136.519531 109.3125 136.496094 109.3125 136.46875 109.308594 C 136.496094 109.3125 136.519531 109.3125 136.542969 109.3125 M 136.738281 109.296875 C 137.136719 109.242188 137.507812 109.023438 137.738281 108.65625 C 137.507812 109.023438 137.136719 109.242188 136.738281 109.296875 M 135.554688 108.90625 C 135.527344 108.875 135.5 108.847656 135.472656 108.816406 C 135.5 108.847656 135.527344 108.875 135.554688 108.90625 M 117.125 75.265625 C 117.128906 74.527344 117.726562 73.890625 118.484375 73.867188 C 117.726562 73.890625 117.128906 74.527344 117.125 75.265625 M 124.488281 74.585938 C 123.296875 74.414062 119.851562 74.046875 118.746094 73.882812 C 118.726562 73.878906 118.703125 73.878906 118.683594 73.875 C 118.703125 73.878906 118.726562 73.878906 118.746094 73.882812 C 119.851562 74.046875 123.296875 74.414062 124.488281 74.585938 M 116.964844 47.386719 C 117.882812 47.308594 118.875 47.257812 119.964844 47.234375 C 118.878906 47.257812 117.882812 47.3125 116.964844 47.386719"/><path fill="#CE9B34" d="M 157.96875 125.414062 C 152.121094 123.203125 145.613281 117.699219 142.347656 114.707031 C 141.640625 114.058594 140.71875 113.691406 139.789062 113.691406 C 139.414062 113.691406 139.039062 113.753906 138.675781 113.875 C 138.292969 114.003906 137.90625 114.054688 137.53125 114.054688 C 136.28125 114.054688 135.203125 113.5 135.203125 113.5 C 124.304688 105.070312 114.710938 83.339844 113.246094 76.042969 C 112.398438 71.789062 114.417969 70.125 116.253906 69.476562 C 117.476562 69.046875 118.15625 67.75 117.753906 66.515625 C 115.898438 60.796875 115.386719 52.285156 115.25 47.566406 C 115.792969 47.496094 116.363281 47.4375 116.964844 47.386719 C 117.882812 47.3125 118.878906 47.257812 119.964844 47.234375 C 119.964844 47.234375 119.890625 48.191406 119.890625 49.875 C 119.890625 54.425781 120.449219 64.265625 124.578125 74.597656 C 124.574219 74.597656 124.574219 74.597656 124.570312 74.597656 C 124.542969 74.59375 124.515625 74.589844 124.488281 74.585938 C 123.296875 74.414062 119.851562 74.046875 118.746094 73.882812 C 118.726562 73.878906 118.703125 73.878906 118.683594 73.875 C 118.632812 73.871094 118.582031 73.867188 118.53125 73.867188 C 118.515625 73.867188 118.5 73.867188 118.484375 73.867188 C 117.726562 73.890625 117.128906 74.527344 117.125 75.265625 C 117.125 75.40625 117.148438 75.550781 117.195312 75.691406 C 121.03125 87.832031 127.226562 99.097656 135.472656 108.816406 C 135.5 108.847656 135.527344 108.875 135.554688 108.90625 C 135.8125 109.160156 136.140625 109.292969 136.46875 109.308594 C 136.496094 109.3125 136.519531 109.3125 136.542969 109.3125 C 136.609375 109.3125 136.675781 109.308594 136.738281 109.296875 C 137.136719 109.242188 137.507812 109.023438 137.738281 108.65625 C 137.773438 108.601562 137.804688 108.546875 137.832031 108.484375 C 138.285156 107.488281 139.800781 104.34375 140.226562 103.378906 C 140.226562 103.378906 148.878906 115.773438 160.859375 122.125 C 160.84375 122.148438 160.828125 122.167969 160.808594 122.191406 C 160.589844 122.492188 160.335938 122.804688 160.0625 123.132812 C 160.054688 123.144531 160.046875 123.152344 160.039062 123.160156 C 160.027344 123.175781 160.015625 123.191406 160.003906 123.207031 C 159.984375 123.222656 159.96875 123.242188 159.953125 123.261719 C 159.949219 123.269531 159.941406 123.277344 159.933594 123.285156 C 159.359375 123.960938 158.6875 124.683594 157.96875 125.414062"/><path fill="#C42818" d="M 161.609375 95.316406 C 161.417969 88.855469 159.492188 82.527344 156.042969 77.007812 C 152.328125 70.988281 147.03125 66.183594 140.71875 63.101562 L 142.722656 59.023438 C 149.808594 62.484375 155.753906 67.875 159.914062 74.617188 C 163.78125 80.808594 165.945312 87.921875 166.160156 95.179688 L 161.609375 95.316406"/><path fill="#C42818" d="M 172.40625 92.566406 C 171.75 85.023438 169.140625 77.382812 164.867188 70.464844 C 160.066406 62.734375 153.65625 56.550781 146.324219 52.589844 L 148.492188 48.597656 C 156.519531 52.9375 163.523438 59.671875 168.742188 68.082031 C 173.386719 75.601562 176.222656 83.929688 176.941406 92.175781 L 172.40625 92.566406"/><path fill="#C42818" d="M 186.554688 91.640625 L 182 91.546875 C 182.0625 88.464844 181.777344 85.285156 181.152344 82.101562 L 185.621094 81.230469 C 186.308594 84.730469 186.625 88.234375 186.554688 91.640625"/><path fill="#C42818" d="M 179.789062 76.78125 C 178.488281 72.667969 176.644531 68.667969 174.308594 64.886719 C 168.542969 55.597656 160.394531 48.519531 151.363281 44.957031 L 153.035156 40.734375 C 162.972656 44.65625 171.902344 52.382812 178.183594 62.5 C 180.71875 66.601562 182.71875 70.945312 184.132812 75.417969 L 179.789062 76.78125"/><path fill="#C42818" d="M 184.285156 149.503906 L 187.746094 149.503906 L 187.746094 144.960938 L 184.285156 144.960938 Z M 184.285156 149.503906"/><path fill="#C42818" d="M 181.050781 149.5 L 165.199219 149.5 L 165.199219 144.960938 L 181.050781 144.960938 L 181.050781 149.5"/><path fill="#C42818" d="M 165.199219 157.71875 L 187.746094 157.71875 L 187.746094 153.175781 L 165.199219 153.175781 Z M 165.199219 157.71875"/><g clip-path="url(#f)"><path fill="#CE4734" d="M 192.457031 168.308594 L 180.808594 168.308594 C 184.3125 168.308594 187.152344 165.480469 187.152344 161.984375 L 187.152344 157.71875 L 187.746094 157.71875 L 187.746094 153.175781 L 187.152344 153.175781 L 187.152344 149.503906 L 187.746094 149.503906 L 187.746094 144.960938 L 187.152344 144.960938 L 187.152344 25.023438 C 187.152344 21.53125 184.3125 18.699219 180.808594 18.699219 L 192.457031 18.699219 C 195.960938 18.699219 198.800781 21.53125 198.800781 25.023438 L 198.800781 161.984375 C 198.800781 165.480469 195.960938 168.308594 192.457031 168.308594"/></g><path fill="#A72214" d="M 187.152344 149.503906 L 187.746094 149.503906 L 187.746094 144.960938 L 187.152344 144.960938 Z M 187.152344 149.503906"/><path fill="#A72214" d="M 187.152344 157.71875 L 187.746094 157.71875 L 187.746094 153.175781 L 187.152344 153.175781 Z M 187.152344 157.71875"/></svg>